# xmcd CD database file
#
# Track frame offsets:
#	150
#	707
#	16890
#	35034
#	53502
#	78950
#	98518
#	109201
#	127760
#	149702
#	166985
#	183588
#	196086
#	213271
#	243571
#	257033
#
# Disc length: 3781 seconds
#
# Revision: 0
# Processed by: cddbd v1.5.2PL0 Copyright (c) Steve Scherf et al.
# Submitted via: CDex 1.51
#
DISCID=cf0ec310
DTITLE=Kat Baloun and Nina T. Davis - Gimme Something to Miss!
DYEAR=2007
DGENRE=Blues
TTITLE0=Intro
TTITLE1=Gimme Something to Miss
TTITLE2=Blues for Mary Lou
TTITLE3=Can I Call You Honey
TTITLE4=I've Been Waiting
TTITLE5=Wrong Train
TTITLE6=Creep Easy
TTITLE7=Strut
TTITLE8=Why You So Mean to Me
TTITLE9=Rather Win At Love
TTITLE10=Who Ate My Wings
TTITLE11=Undercover Lover
TTITLE12=I Got to Move It
TTITLE13=Red Headed Woman
TTITLE14=Wait and See
TTITLE15=Rainy Night in Georgia
EXTD=YEAR: 2007
EXTT0=
EXTT1=
EXTT2=
EXTT3=
EXTT4=
EXTT5=
EXTT6=
EXTT7=
EXTT8=
EXTT9=
EXTT10=
EXTT11=
EXTT12=
EXTT13=
EXTT14=
EXTT15=
PLAYORDER=
